Results
version=1
nRows=6
nColumns=55
inDegrees=yes
endheader
time	/jointset/boatJoint/bJoint_3/value	/jointset/boatJoint/bJoint_3/speed	/jointset/boatJoint/bJoint_4/value	/jointset/boatJoint/bJoint_4/speed	/jointset/seatJoint/seatpos/value	/jointset/seatJoint/seatpos/speed	/jointset/starboardlockJoint/slocangle/value	/jointset/starboardlockJoint/slocangle/speed	/jointset/starboardoarJoint/soarinout/value	/jointset/starboardoarJoint/soarinout/speed	/jointset/portlockJoint/plocangle/value	/jointset/portlockJoint/plocangle/speed	/jointset/portoarJoint/poarinout/value	/jointset/portoarJoint/poarinout/speed	/jointset/hipJoint/hipangle/value	/jointset/hipJoint/hipangle/speed	/jointset/knee_Joint/kneeangle/value	/jointset/knee_Joint/kneeangle/speed	/jointset/foot_Joint/footangle/value	/jointset/foot_Joint/footangle/speed	/jointset/lbackJoint/lbackangle/value	/jointset/lbackJoint/lbackangle/speed	/jointset/upper_arm_left_Joint/uarmleft_out/value	/jointset/upper_arm_left_Joint/uarmleft_out/speed	/jointset/upper_arm_left_Joint/uarmleft_trn/value	/jointset/upper_arm_left_Joint/uarmleft_trn/speed	/jointset/upper_arm_left_Joint/uarmleft_up/value	/jointset/upper_arm_left_Joint/uarmleft_up/speed	/jointset/lower_arm_left_Joint/se_inout/value	/jointset/lower_arm_left_Joint/se_inout/speed	/jointset/lower_arm_left_Joint/se_updown/value	/jointset/lower_arm_left_Joint/se_updown/speed	/jointset/handle_left_Joint/handleleft_out/value	/jointset/handle_left_Joint/handleleft_out/speed	/jointset/handle_left_Joint/handleleft_trn/value	/jointset/handle_left_Joint/handleleft_trn/speed	/jointset/handle_left_Joint/handleleft_up/value	/jointset/handle_left_Joint/handleleft_up/speed	/jointset/upper_arm_right_Joint/uarmright_out/value	/jointset/upper_arm_right_Joint/uarmright_out/speed	/jointset/upper_arm_right_Joint/uarmright_trn/value	/jointset/upper_arm_right_Joint/uarmright_trn/speed	/jointset/upper_arm_right_Joint/uarmright_up/value	/jointset/upper_arm_right_Joint/uarmright_up/speed	/jointset/lower_arm_right_Joint/pe_inout/value	/jointset/lower_arm_right_Joint/pe_inout/speed	/jointset/lower_arm_right_Joint/pe_updown/value	/jointset/lower_arm_right_Joint/pe_updown/speed	/jointset/handle_right_Joint/handleright_out/value	/jointset/handle_right_Joint/handleright_out/speed	/jointset/handle_right_Joint/handleright_trn/value	/jointset/handle_right_Joint/handleright_trn/speed	/jointset/handle_right_Joint/handleright_up/value	/jointset/handle_right_Joint/handleright_up/speed
      0.84113430	      0.21157501	    -16.44959099	      0.31016515	      0.66245550	     -0.81304122	     22.83506143	     63.35473868	   -411.31292121	     41.27599170	   1164.60139178	     34.26379246	  -3097.59535983	     44.63076923	    522.85963630	     20.39777822	   -756.36405550	    163.60505818	  -2460.63415728	     94.00283641	  -3216.99821278	     28.19777389	   -535.83880334	    -55.77843991	    398.71257726	     84.39430648	   2845.79313097	   -150.20635697	   3924.47286738	    257.67978607	  -2339.97653957	   -849.44345130	   5719.23828541	    375.94285659	  -4474.79883331	     17.31157811	  -3308.89421840	    -92.53134842	   1301.76629995	     -1.22973883	    446.31750884	   -220.86462477	  -3147.67338246	   -174.43719282	    332.93217681	    -20.14515634	   1751.38286828	     -6.48476349	     40.25807439	    164.37639829	   5718.32698513	     -0.62282358	    168.58382999	    -58.99825058	  -3755.66308641
      0.84139739	      0.20722523	    -16.61268771	      0.31035502	      0.77911586	     -0.80696919	     23.31450466	     63.24134469	   -450.83983115	     41.58023638	   1148.08508977	     33.44822885	  -3101.95013138	     44.76579906	    503.75022929	     20.22106762	   -588.27568837	    162.94619803	  -2546.69162408	     93.16726565	  -3134.96731245	     28.05988482	   -512.86802984	    -66.89916582	    395.42881669	     83.83895619	   2841.58553771	   -138.92225865	   3972.11270044	    257.05801552	  -2385.76707385	   -847.93885657	   5717.56189495	    374.58819263	  -4551.34005781	     16.55926127	  -3306.63167183	    -91.95759139	   1217.09548245	     -1.05367279	    434.72377197	   -221.69365593	  -3142.90597141	   -174.52834430	    313.24856886	    -19.69033783	   1706.33281126	     -6.47132046	     61.59330159	    165.88928610	   5685.29455201	     -0.90794549	     82.52300064	    -58.05281599	  -3746.86414482
      0.84166048	      0.20283563	    -16.75260514	      0.31057417	      0.88506315	     -0.80077807	     23.74058294	     63.11743274	   -491.26555909	     41.88004171	   1130.88510377	     32.63169714	  -3104.96699649	     44.89591087	    485.48120469	     20.08749554	   -428.59042189	    162.26565965	  -2625.42368592	     92.35315519	  -3054.01410781	     27.92764658	   -492.87831129	    -75.90058614	    392.71367290	     83.07868137	   2833.99471760	   -129.75797847	   4016.21425551	    256.42486615	  -2426.48662204	   -846.43539117	   5710.63662786	    373.23363896	  -4622.89757780	     15.78982420	  -3300.41193920	    -91.42795452	   1129.53295817	     -0.88145836	    421.58895686	   -222.52117205	  -3138.40113789	   -174.61713848	    293.69499768	    -19.24716992	   1662.79082603	     -6.45252440	     80.98351524	    167.39754014	   5648.93439567	     -1.14555094	     -2.98476258	    -57.09715346	  -3738.12376194
      0.84199522	      0.19720238	    -16.89995542	      0.31089093	      1.00471433	     -0.79275072	     24.20841754	     62.94420654	   -543.97767824	     42.25482688	   1108.31126660	     31.59196013	  -3107.02366276	     45.05470214	    463.52484027	     19.97623504	   -238.73303785	    161.37150230	  -2715.14103527	     91.34773734	  -2953.87407311	     27.76634293	   -471.66585464	    -84.59289034	    390.27260606	     81.90194871	   2819.53236771	   -120.85912480	   4067.44147355	    255.60494486	  -2471.13227780	   -844.52637148	   5694.06208303	    371.51140342	  -4706.59117724	     14.78973971	  -3287.35399102	    -90.81957250	   1014.11021531	     -0.66868537	    402.80209871	   -223.57194339	  -3132.78378368	   -174.72663246	    269.38030853	    -18.69958541	   1609.28357024	     -6.42163147	    103.16483139	    169.30723195	   5597.93395891	     -1.37908496	   -110.70421839	    -55.86945604	  -3727.07155498
      0.84244653	      0.18953917	    -17.05150369	      0.31137608	      1.14053878	     -0.78170529	     24.71754399	     62.68225440	   -617.29964795	     42.74803246	   1077.29256840	     30.18960342	  -3107.08390563	     45.25765710	    436.35436349	     19.92175546	     -7.44571354	    160.12206645	  -2818.53155011	     90.04382191	  -2825.97726366	     27.55862202	   -450.16373270	    -92.68767451	    389.20297809	     80.07790779	   2791.85946788	   -112.48671400	   4128.40564519	    254.47833260	  -2519.23358299	   -841.96418776	   5657.56870191	    369.19309265	  -4806.07772540	     13.41165938	  -3261.91761192	    -90.11833008	    851.67390181	     -0.39434288	    374.16476868	   -224.98505467	  -3124.89750620	   -174.86828279	    238.45893509	    -17.98908554	   1539.72005655	     -6.36901256	    129.38573980	    171.85999035	   5521.08074877	     -1.57246063	   -253.40525708	    -54.19968437	  -3712.31807302
      0.84289784	      0.18181789	    -17.15909044	      0.31191636	      1.24946999	     -0.77045860	     25.10350303	     62.38662791	   -693.20682509	     43.22723889	   1046.41309668	     28.78779621	  -3104.71625443	     45.44901217	    412.14596885	     19.96527296	    195.71329293	    158.83017694	  -2903.66006678	     88.79544990	  -2707.94677385	     27.35889171	   -436.11950741	    -98.06723610	    391.27777627	     78.09109230	   2755.36669073	   -106.82988075	   4180.75051193	    253.33296570	  -2554.42645391	   -839.42223093	   5604.34460925	    366.88071430	  -4889.79406432	     12.00982417	  -3229.15767725	    -89.55679830	    681.78349654	     -0.13551922	    342.23256050	   -226.39386624	  -3116.06658637	   -175.00392337	    210.83139421	    -17.30952836	   1471.93786482	     -6.30533637	    152.33465125	    174.37990887	   5435.47778529	     -1.62783965	   -392.37416677	    -52.52181573	  -3697.84033369
